PathFileType        4      (X/Y/Z)      C:\Users\pc\Desktop\IMUTRC\Sujet_01\Sujet_01_velo_80.trc         
DataRate	CameraRate	NumFrames	NumMarkers	Units	OrigDataRate	OrigDataStartFrame	OrigNumFrames
60.0	60.0	4	64	mm	60.0	124	984
Frame#	Time	pHipOrigin			pRightASI			pLeftASI			pRightCSI			pLeftCSI			pRightIschialTub			pLeftIschialTub			pSacrum			pL5SpinalProcess			pL3SpinalProcess			pT12SpinalProcess			pIJ			pT4SpinalProcess			pT8SpinalProcess			pPX			pC7SpinalProcess			pTopOfHead			pRightAuricularis			pLeftAuricularis			pBackOfHead			pRightAcromion			pLeftAcromion			pRightArmLatEpicondyle			pRightArmMedEpicondyle			pLeftArmLatEpicondyle			pLeftArmMedEpicondyle			pRightUlnarStyloid			pRightRadialStyloid			pRightOlecranon			pLeftUlnarStyloid			pLeftRadialStyloid			pLeftOlecranon			pRightTopOfHand			pRightPinky			pRightBallHand			pLeftTopOfHand			pLeftPinky			pLeftBallHand			pRightGreaterTrochanter			pRightKneeLatEpicondyle			pRightKneeMedEpicondyle			pRightPatella			pLeftGreaterTrochanter			pLeftKneeLatEpicondyle			pLeftKneeMedEpicondyle			pLeftPatella			pRightTibialTub			pRightLatMalleolus			pRightMedMalleolus			pLeftTibialTub			pLeftLatMalleolus			pLeftMedMalleolus			pRightHeelFoot			pRightFirstMetatarsal			pRightFifthMetatarsal			pRightPivotFoot			pRightHeelCenter			pRightToe			pLeftHeelFoot			pLeftFirstMetatarsal			pLeftFifthMetatarsal			pLeftPivotFoot			pLeftHeelCenter			pLeftToe			
		X1	Y1	Z1	X2	Y2	Z2	X3	Y3	Z3	X4	Y4	Z4	X5	Y5	Z5	X6	Y6	Z6	X7	Y7	Z7	X8	Y8	Z8	X9	Y9	Z9	X10	Y10	Z10	X11	Y11	Z11	X12	Y12	Z12	X13	Y13	Z13	X14	Y14	Z14	X15	Y15	Z15	X16	Y16	Z16	X17	Y17	Z17	X18	Y18	Z18	X19	Y19	Z19	X20	Y20	Z20	X21	Y21	Z21	X22	Y22	Z22	X23	Y23	Z23	X24	Y24	Z24	X25	Y25	Z25	X26	Y26	Z26	X27	Y27	Z27	X28	Y28	Z28	X29	Y29	Z29	X30	Y30	Z30	X31	Y31	Z31	X32	Y32	Z32	X33	Y33	Z33	X34	Y34	Z34	X35	Y35	Z35	X36	Y36	Z36	X37	Y37	Z37	X38	Y38	Z38	X39	Y39	Z39	X40	Y40	Z40	X41	Y41	Z41	X42	Y42	Z42	X43	Y43	Z43	X44	Y44	Z44	X45	Y45	Z45	X46	Y46	Z46	X47	Y47	Z47	X48	Y48	Z48	X49	Y49	Z49	X50	Y50	Z50	X51	Y51	Z51	X52	Y52	Z52	X53	Y53	Z53	X54	Y54	Z54	X55	Y55	Z55	X56	Y56	Z56	X57	Y57	Z57	X58	Y58	Z58	X59	Y59	Z59	X60	Y60	Z60	X61	Y61	Z61	X62	Y62	Z62	X63	Y63	Z63	X64	Y64	Z64	
124	2.05	0.0	1249.99432	7.654007714701862E-14	28.744429999999983	1335.03242	139.95729000000009	93.16542000000001	1343.93662	-100.7549099999999	-4.123420000000014	1398.37774	110.55550000000008	48.883460000000014	1405.66842	-87.36872999999991	-63.644110000000005	1197.346	34.122810000000065	-37.110789999999994	1200.99134	-64.83930999999993	-59.10238	1271.08951	-15.059449999999929	-22.23062	1365.68916	-0.29879999999991913	29.700589999999995	1459.69122	15.477770000000092	83.60387	1541.86085	30.716500000000106	316.42778	1561.04373	69.44081000000014	217.04735	1659.04969	61.19397000000013	149.45909	1612.85542	47.03091000000012	226.84794	1494.05307	50.25793000000012	255.77165	1685.04517	69.38105000000013	462.77937	1812.45292	55.755830000000174	405.76858	1749.22713	133.26420000000016	395.48991	1735.66167	2.5099100000001546	361.84518	1776.77636	67.40898000000016	204.91611999999998	1649.66741	237.78397000000015	294.79476	1634.2494	-102.60745999999986	266.76744999999994	1432.5603	321.6866400000002	250.81159999999997	1405.72818	277.7034800000002	409.29441	1418.87532	-91.43238999999986	369.6737	1392.99936	-65.55642999999988	349.65418999999997	1262.72314	408.93585000000013	381.7451699999999	1262.96218	378.87670000000014	241.72811999999996	1423.17803	314.75451000000015	552.35921	1271.08951	-86.05400999999986	555.16791	1275.09341	-42.36964999999985	387.00403	1407.81977	-101.47202999999988	510.16882999999996	1231.64808	475.5679500000001	429.67247999999995	1237.5643	471.6835700000001	383.23915999999997	1244.19763	422.5013100000001	706.53932	1241.50844	0.3585600000001625	654.72763	1249.21744	-61.193969999999844	587.43817	1255.13366	-68.24560999999986	-41.054940000000016	1226.32947	142.2879200000001	145.15638999999996	953.04821	243.22211000000007	182.68549999999996	951.37494	187.52604000000008	188.78098999999997	977.19114	228.7005000000001	44.640520000000016	1244.9745	-143.90143999999992	367.1638	1120.19618	-145.0966299999999	372.60193	1119.12051	-78.16572999999988	381.14757	1155.57394	-109.71886999999988	206.94794999999996	924.30378	244.29779000000008	139.47921999999997	550.62617	257.08637000000004	173.72153999999998	547.57843	207.78459000000007	394.59351	1076.45206	-128.00534999999988	155.01675000000003	793.78852	-212.2068099999999	163.32335000000003	776.21916	-155.3155399999999	107.20895999999999	426.26617	171.27139000000003	260.25362999999993	380.3707	267.42480000000006	196.19119999999998	375.94848	327.96141	245.91129999999998	371.52626	314.15691000000004	135.83386999999996	412.58119	200.67318000000006	295.75091999999995	355.45089	365.8490800000001	33.70449000000002	710.54322	-181.31102999999993	169.47860000000003	588.09553	-144.67830999999995	166.78941000000003	589.58952	-232.82391999999993	186.68940000000003	572.02016	-188.42243999999994	64.18195000000003	679.88647	-182.80501999999998	243.46115000000003	525.28805	-190.99209999999994	
125	2.067	0.0	1249.99432	7.654007714701862E-14	30.238419999999984	1334.49458	139.95729000000009	92.14951000000002	1344.23542	-101.3525099999999	-2.928230000000014	1397.95942	111.15310000000008	48.04682000000001	1405.96722	-87.30896999999992	-63.285560000000004	1197.22648	34.600890000000064	-37.827909999999996	1201.23038	-64.66002999999994	-59.22189	1271.20903	-14.342339999999929	-22.23062	1365.6294	0.2390400000000809	29.760349999999995	1459.63146	15.836330000000093	83.54411	1541.92061	30.836020000000108	316.42778	1561.8206	69.02249000000015	216.74855	1659.46801	60.77565000000013	149.27981	1613.09445	46.85163000000012	226.96746	1494.53115	50.07866000000012	255.35334	1685.64277	68.84321000000013	462.54033	1813.11028	55.03871000000017	405.46978	1749.94424	132.54709000000017	395.13135	1736.37878	1.7927900000001549	361.54638	1777.55324	66.69186000000016	205.27467999999996	1649.78693	237.60470000000015	294.49596	1634.72748	-102.96601999999986	266.2296099999999	1432.50054	322.40376000000015	250.03471999999996	1405.5489	278.5998700000002	408.69681	1418.99484	-91.31286999999986	369.13587	1393.35792	-65.19786999999987	349.11635999999993	1262.72314	409.7724800000001	381.08780999999993	1262.7829	379.5938200000001	241.19027999999997	1423.11827	315.5911500000002	551.58233	1271.14927	-85.51617999999986	554.39104	1275.15317	-41.83180999999985	386.40643	1407.99905	-101.23298999999987	510.04931999999997	1232.48472	475.8069900000001	429.49319999999994	1237.98262	472.2811600000001	382.88060999999993	1244.25739	423.27818000000013	705.70268	1241.20964	0.9561600000001624	653.95075	1249.03817	-60.65612999999984	586.66129	1255.13366	-67.70777999999986	-40.27806000000002	1225.67211	142.34768000000008	134.28011999999998	941.9329	235.15455000000009	170.91282999999999	939.72179	178.8608800000001	178.86087999999998	964.3428	220.4536500000001	44.87956000000001	1246.7673	-143.90143999999992	373.08001	1137.88506	-141.86959999999988	377.74127	1136.63011	-74.81917999999989	384.91244	1173.68114	-106.13327999999989	195.89239999999998	912.29207	235.87166000000008	125.61495999999997	539.15231	249.13832000000005	159.55848999999998	535.86552	199.53775000000005	401.10732	1094.32022	-123.88192999999988	168.70172000000002	805.80023	-208.26266999999993	176.59001000000004	789.00775	-151.01283999999993	89.93839999999999	417.00341	161.11224000000004	241.42931999999996	365.31124	256.72781000000003	177.18760999999998	361.72566	317.02538	226.72841999999997	356.168	303.28064	118.14498999999998	402.12324	190.27499000000006	276.0301999999999	337.88153	354.73377000000005	50.07866000000002	718.37174	-176.23144999999994	190.27499000000003	601.66099	-137.62665999999993	187.64556000000002	601.72074	-225.77226999999993	208.08339000000004	585.52586	-181.07198999999994	81.63179000000002	688.85043	-177.24736999999996	266.58817	541.12438	-182.86477999999994	
126	2.083	0.0	1249.99432	7.654007714701862E-14	31.55313999999998	1333.95675	140.0170500000001	91.37263000000002	1344.53422	-101.7708199999999	-1.7330300000000138	1397.5411	111.75070000000008	47.449230000000014	1406.26602	-87.12968999999991	-63.04652000000001	1197.16672	34.959440000000065	-38.48526999999999	1201.52918	-64.48074999999993	-59.34141	1271.32855	-13.74473999999993	-22.05134	1365.6294	0.776880000000081	29.879869999999997	1459.5717	16.254650000000094	83.60387	1541.86085	31.134820000000108	316.5473	1562.29868	69.14201000000014	216.62903	1659.76681	60.83541000000013	149.22005	1613.15421	47.03091000000012	227.2065	1494.82994	50.377450000000124	255.23382	1686.06109	68.84321000000013	462.48057	1813.46884	54.91919000000017	405.41002	1750.36256	132.42757000000017	394.95207	1736.85686	1.7330300000001548	361.48662	1778.03132	66.63210000000015	205.69299999999998	1649.72717	237.90349000000015	294.4362	1635.08604	-102.90625999999986	265.75152999999995	1432.32126	323.5989500000002	249.31759999999997	1405.19035	279.9743500000002	408.33825	1419.0546	-91.01406999999986	368.77731	1393.59696	-64.60026999999987	348.9370799999999	1262.60362	410.9676800000001	380.66948999999994	1262.54387	380.5499800000001	240.65243999999998	1422.93899	316.9656200000002	551.10425	1271.14927	-84.79905999999986	553.91296	1275.27269	-41.11469999999985	386.10763	1408.11857	-100.81466999999988	510.34810999999996	1233.62015	476.3448300000001	429.73223999999993	1238.52045	473.1178000000001	382.82084999999995	1244.31715	424.2941000000001	705.2246	1241.14988	1.6732700000001623	653.47267	1248.97841	-59.87924999999984	586.18321	1255.13366	-66.99065999999986	-39.38166000000001	1225.25379	142.5269600000001	124.53927999999998	933.20798	228.46146000000007	160.15607999999997	930.21999	171.57019000000008	169.77739999999997	953.94461	213.3422400000001	45.238120000000016	1248.56009	-143.78191999999993	377.86079	1154.19947	-138.0449799999999	381.68541	1152.70548	-70.93479999999988	387.60162	1190.23459	-101.89033999999988	185.49420999999998	902.55124	228.4017000000001	110.67501999999998	530.30786	241.25004000000004	144.14046999999997	526.72228	191.41042000000004	406.4857	1111.05294	-119.04138999999988	182.62574000000004	815.83987	-203.4818899999999	190.09571000000003	799.88402	-145.9332699999999	71.17383999999998	410.7884	150.89332000000002	220.87196999999998	352.7617	245.79178000000005	156.39121999999998	350.13227	305.96983	205.81251999999998	343.2599	292.16533	98.84259999999998	394.53375	179.87679000000003	254.39717999999996	322.58304	343.31966000000006	67.88706000000002	722.79396	-169.83715999999995	213.70080000000002	614.15077	-128.48341999999994	211.31041000000002	612.1787	-216.62902999999994	232.46536000000003	598.01564	-171.57018999999994	100.93419000000002	694.88617	-170.13595999999998	293.18125	556.48263	-172.28730999999993	
127	2.1	0.0	1249.99432	7.654007714701862E-14	32.688569999999984	1333.35915	140.1365700000001	90.83479000000001	1344.77326	-102.0696199999999	-0.7171200000000137	1397.12278	112.28854000000008	47.09067000000001	1406.50506	-86.83088999999991	-62.92700000000001	1197.16672	35.19848000000007	-39.023109999999996	1201.82798	-64.42098999999993	-59.40117	1271.44807	-13.266659999999929	-21.87206	1365.6294	1.254950000000081	30.178659999999997	1459.51194	16.792480000000094	83.96242	1541.74133	31.612900000000106	316.90586	1562.23892	69.62009000000015	216.92783	1659.64729	61.31349000000013	149.57861	1613.0347	47.44923000000012	227.62482	1494.71043	50.91529000000012	255.53262	1685.94157	69.32129000000013	462.95865	1813.2298	55.33751000000017	405.82834	1750.12352	132.90564000000018	395.25087	1736.73734	2.1513500000001544	361.90494	1777.9118	67.11018000000016	206.29059999999998	1649.36861	238.50109000000015	294.79476	1635.08604	-102.42817999999986	265.6320099999999	1431.90295	324.91366000000016	249.07855999999998	1404.65251	281.40858000000014	408.39801	1418.87532	-90.35671999999985	368.89683	1393.5372	-63.76362999999987	349.17611999999997	1262.30483	412.2226300000001	380.84876999999994	1262.24507	381.7451700000001	240.53291999999996	1422.52067	318.3998500000002	551.16401	1270.96999	-83.90265999999986	553.97272	1275.15317	-40.21829999999985	386.16739	1407.93929	-100.09754999999987	511.00546999999995	1234.45679	477.1217000000001	430.32982999999996	1238.75949	474.19348000000014	383.23915999999997	1244.19763	425.54905000000014	705.28436	1241.09012	2.569670000000162	653.53243	1248.85889	-58.982859999999846	586.24297	1255.01414	-66.03449999999985	-38.604790000000015	1224.95499	142.7062400000001	116.53147999999997	926.57465	223.20260000000007	151.31163999999998	923.10859	165.7735000000001	162.18790999999996	945.9368	207.66507000000007	45.536920000000016	1250.1736	-143.60263999999992	381.32685	1168.00397	-134.28011999999987	384.43436	1166.27094	-67.16993999999988	389.33466	1204.15861	-97.82667999999988	176.88880999999998	894.60319	222.18668000000008	95.79484999999997	523.55501	233.24224000000004	128.78221999999997	519.73039	183.10382000000007	411.02744	1125.27576	-114.26060999999987	196.90832000000003	822.95127	-198.3425499999999	203.95997000000003	807.83206	-140.55488999999992	52.58855999999999	406.84426	140.97321000000002	200.43413999999999	342.90134	234.91551000000007	135.89362999999997	341.22807	295.0338	185.07588999999996	333.10075	281.16954	79.77923999999999	389.2749	169.65788000000003	233.06295999999998	310.15301	332.0250700000001	86.77113000000001	724.10868	-162.84526999999994	238.14253000000002	624.72824	-118.44378999999994	236.17046000000002	620.4853	-206.52962999999994	257.923	608.59311	-161.05247999999995	121.25250000000001	698.11319	-162.3671899999999	320.79024	570.40665	-160.63415999999995	
